<svg width="477" height="391" viewBox="0 0 477 391" fill="none" xmlns="http://www.w3.org/2000/svg">
<g id="illustration">
<path id="Path" d="M414.215 140.3C416.897 150.15 417.222 160.42 415.168 170.39C413.113 180.37 408.729 189.81 402.322 198.04C392.756 210.12 379.12 219.14 370.627 231.85C352.272 259.3 362.125 296.77 345.289 325.04C331.216 348.69 302.062 360.31 274.991 370.28C253.734 378.1 232.264 385.98 209.731 389.13C187.198 392.28 162.965 390.28 143.44 379.41C127.338 370.48 115.508 356.31 104.582 342.16C77.723 307.34 53.448 269.44 45.2 227.32C36.952 185.21 47.24 137.97 81.061 108.83C97.525 94.6399 119.09 84.8499 130.707 67.0099C142.898 48.2899 143.068 22.16 162.019 9.11995C169.013 4.29995 177.707 2.05995 186.337 0.999952C207.115 -1.48005 228.203 2.27995 246.506 11.73C265.074 21.38 280.316 36.71 300.542 42.88C326.721 50.87 360.318 44.73 377.717 68.38C391.693 87.4 408.008 118.15 414.215 140.3Z" fill="#F2F5F9"/>
<path id="Path_2" d="M132.5 269.75C132.5 247.66 150.409 229.75 172.5 229.75H239.5C261.591 229.75 279.5 247.66 279.5 269.75V304.96C279.5 327.05 261.591 344.96 239.5 344.96H172.5C150.409 344.96 132.5 327.05 132.5 304.96V269.75Z" fill="#997659"/>
<g id="people">
<path id="Path_3" fill-rule="evenodd" clip-rule="evenodd" d="M235.435 86.8899C241.911 90.5199 248.274 92.2699 251.26 91.5499C258.75 89.7599 259.438 64.2999 253.643 54.2699C247.849 44.2299 218.058 39.8599 216.557 59.7399C216.036 66.6399 219.154 72.7999 223.762 77.8299L215.5 113.61H239.5L235.435 86.8899Z" fill="#F7C2B2"/>
<path id="Path_4" fill-rule="evenodd" clip-rule="evenodd" d="M221.918 82.2999C218.906 69.8499 210.325 61.3599 211.635 55.7999C212.946 50.2299 218.621 48.8799 218.621 48.8799C218.621 48.8799 221.557 37.8399 237.556 39.4899C248.599 38.4599 257.72 34.9899 265.297 37.8399C270.977 41.9699 267.943 55.3399 255.323 57.7599C251.446 57.7599 250.546 59.5899 244.076 61.8299C240.996 62.8899 239.67 68.4099 239.67 68.4099H236.746C236.746 68.4099 232.489 61.8599 228.351 63.5899C224.213 65.3299 226.47 72.0399 226.47 72.0399L225.029 82.2999H221.918Z" fill="#191847"/>
<path id="Path_5" fill-rule="evenodd" clip-rule="evenodd" d="M378.659 340.31C358.943 317.94 345.603 301.36 338.638 290.56C326.713 272.07 316.953 255.62 313.873 249.34C306.528 234.35 330.782 227.33 336.271 234.32C344.579 244.9 362.322 278.19 389.5 334.2L378.659 340.31Z" fill="#F6C2B2"/>
<path id="Path_6" fill-rule="evenodd" clip-rule="evenodd" d="M357.693 326.48C346.825 330.58 334.658 325.39 330.092 314.71L301.565 247.99C293.717 232.35 331.616 222.07 337.383 229.35C345.446 239.52 360.344 268.16 371.514 289.81C378.252 302.87 371.446 321.3 357.693 326.48Z" fill="#33B074"/>
<path id="Path_7" fill-rule="evenodd" clip-rule="evenodd" d="M240.533 316.6C247.681 306.91 273.679 274.32 287.839 260.84C291.908 256.96 295.879 253.24 299.634 249.78C310.796 239.47 333.024 256.79 321.882 266.17C294.135 289.54 253.651 321.09 250.269 323.9C245.528 327.84 236.041 322.69 240.533 316.6Z" fill="#F6C2B2"/>
<path id="Path_8" fill-rule="evenodd" clip-rule="evenodd" d="M249.535 316.89C245.527 314.74 240.211 312.87 237.565 316.59C237.505 316.67 237.45 316.76 237.399 316.84C235.096 320.54 237.015 325.1 240.861 327.16C249.82 331.97 265.611 340.44 275.134 345.55C279.871 348.09 289.176 345.37 284.804 342.32C283.419 341.35 282.21 340.49 281.232 339.79C279.418 338.49 277.826 336.94 276.474 335.21L263.294 318.34C262.054 316.75 259.656 316.46 257.94 317.69C257.162 318.24 256.2 318.51 255.253 318.38C253.637 318.17 251.073 317.71 249.535 316.89Z" fill="#AFB9C5"/>
<path id="Path_9" fill-rule="evenodd" clip-rule="evenodd" d="M379.037 337.6C374.387 337.6 368.5 338.55 368.5 343.2C368.5 347.49 372.489 350.53 376.778 350.53C387.148 350.53 405.808 350.53 416.873 350.53C422.208 350.53 428.565 343.84 423.265 343.24C421.53 343.04 420.01 342.86 418.78 342.71C416.53 342.43 414.335 341.83 412.24 340.96L391.62 332.42C389.74 331.64 387.582 332.5 386.757 334.37C386.375 335.23 385.686 335.91 384.804 336.24C383.288 336.8 380.816 337.6 379.037 337.6Z" fill="#AFB9C5"/>
<path id="Path_10" fill-rule="evenodd" clip-rule="evenodd" d="M288.514 252.33C288.416 252.29 288.317 252.27 288.212 252.26C285.339 251.82 242.098 245.27 227.081 242.81C198.346 238.1 189.423 223.99 193.66 193.55C193.864 192.09 195.125 191.01 196.602 191.01H248.039C248.301 191.01 248.519 191.03 248.771 191.1C260.692 194.52 337.505 226.36 338.654 226.84C338.691 226.85 338.686 226.85 338.722 226.87C348.189 231.28 346.418 244.2 344.68 248.46C344.584 248.69 306.213 309.72 298.02 322.75C297.155 324.13 295.378 324.52 293.979 323.69L255.037 300.64C253.443 299.7 253.076 297.55 254.266 296.13L288.245 255.62C288.378 255.46 288.495 255.29 288.581 255.1C288.887 254.43 289.527 252.76 288.514 252.33Z" fill="#36C982"/>
<path id="Shape" fill-rule="evenodd" clip-rule="evenodd" d="M335.582 148.85L313.225 179.19L300.806 166.07L325.496 146.46C328.498 142.49 330.831 138.99 332.655 136.26C335.579 131.87 337.195 129.44 338.165 130.19C339.48 131.19 338.903 132.7 338.372 134.08C337.948 135.19 337.552 136.22 338.165 136.87C339.057 137.81 341.366 136.58 344.295 135.01C345.904 134.15 347.699 133.19 349.55 132.43C354.772 130.3 354.045 133.03 353.164 134.55C348.835 139.38 342.975 144.15 335.582 148.85ZM173.5 173.13L153.008 169.35C139.111 203.39 130.826 222.04 128.152 225.3C126.192 227.7 114.103 233.87 105.92 237.17C102.635 238.49 103.341 241.07 104.304 241.89C110.38 247.1 116.029 245.27 122.178 243.29C123.959 242.71 125.781 242.12 127.667 241.69C132.55 240.56 134.036 242.89 135.44 245.1C136.684 247.05 137.863 248.9 141.279 248.16C141.124 247.54 140.933 246.84 140.727 246.09C139.395 241.22 137.431 234.04 140.345 229.87C141.84 227.73 152.892 208.82 173.5 173.13Z" fill="#F6C2B2"/>
<path id="Path_11" d="M331.259 146.08C330.71 147.23 330.667 148.54 331.138 149.72C331.609 150.9 332.558 151.87 333.783 152.41C336.993 153.87 340.489 154.71 344.062 154.89C346.491 155.41 349.831 153.66 351.54 150.36C353.248 147.05 361.792 130.91 365.305 122.27C365.571 121.64 365.697 120.98 365.676 120.31C365.655 119.64 365.488 118.98 365.184 118.37C364.88 117.77 364.445 117.22 363.908 116.78C363.37 116.33 362.74 115.99 362.056 115.78L351.684 113.69C350.456 113.34 349.128 113.42 347.955 113.91C346.783 114.41 345.848 115.29 345.331 116.38L331.259 146.08Z" fill="#3D3D54"/>
<path id="Path_12" d="M362.273 120.57L346.964 150.64C346.763 150.99 346.44 151.27 346.046 151.43C345.651 151.59 345.211 151.62 344.796 151.52L335.331 148.38C334.97 148.26 334.575 148.21 334.259 148C334.101 147.9 333.971 147.77 333.877 147.61C333.783 147.45 333.729 147.28 333.719 147.1C333.708 146.92 333.742 146.74 333.817 146.58L348.167 117.42C348.367 117.07 348.691 116.79 349.085 116.63C349.479 116.47 349.92 116.44 350.335 116.54L361.336 118.92C361.526 118.95 361.706 119.03 361.863 119.13C362.019 119.24 362.147 119.37 362.237 119.53C362.327 119.69 362.377 119.87 362.384 120.05C362.39 120.23 362.352 120.41 362.273 120.57Z" fill="#C3DBEE"/>
<path id="Path_13" fill-rule="evenodd" clip-rule="evenodd" d="M229.106 103.68C229.109 100.46 231.517 97.7499 234.708 97.2399C236.691 96.9299 238.717 97.4899 240.091 98.9299C257.311 116.98 264.874 154.72 276.914 159.9C287.625 164.5 296.045 159.43 312.286 153.49C315.754 152.22 319.593 152.8 322.574 154.91C328.144 158.86 329.009 166.85 323.778 171.36C301.525 190.57 272.859 198.68 259.16 190.99C235.638 177.78 229.081 132.73 229.106 103.68Z" fill="#446EC1"/>
<path id="Path_14" fill-rule="evenodd" clip-rule="evenodd" d="M191.5 199.09C191.5 199.09 243.508 199.09 268.011 199.09C271.508 199.09 270.849 194.4 270.343 192.03C264.511 164.71 241.741 135.27 241.741 96.3799L219.672 93.1699C201.417 120.44 195.105 154.03 191.5 199.09Z" fill="#F2F6F9"/>
<path id="Path_15" fill-rule="evenodd" clip-rule="evenodd" d="M219.222 93.1699C218.584 93.1699 217.953 93.3399 217.401 93.6499C171.291 120.34 142.329 160.68 130.516 214.67C129.275 220.35 133.107 225.81 138.82 226.85C142.38 227.5 146.039 226.3 148.379 223.54C157.579 212.69 168.453 196.91 181.004 176.19C181.419 175.51 182.521 175.99 182.303 176.76C176.026 198.93 194.094 218.6 217.131 218.6C233.044 218.6 247.168 208.69 246.771 192.78C245.936 159.31 232.728 112.37 228.37 97.7199C227.556 94.9799 225.046 93.1699 222.193 93.1699C222.047 93.1699 221.902 93.1699 221.758 93.1799C220.92 93.2399 220.062 93.1699 219.222 93.1699Z" fill="#5079CA"/>
</g>
<g id="text">
<g id="massage-3">
<g id="Path_16" filter="url(#filter0_d_0_826)">
<path d="M47.5 251C47.5 248.24 49.739 246 52.5 246H213.881L231.949 229L232.585 246H252.5C255.261 246 257.5 248.24 257.5 251V302C257.5 304.76 255.261 307 252.5 307H52.5C49.739 307 47.5 304.76 47.5 302V251Z" fill="white"/>
</g>
<path id="Shape_2" fill-rule="evenodd" clip-rule="evenodd" d="M96.942 261.99C96.942 262.39 96.591 262.73 96.166 262.73C95.742 262.73 95.391 262.39 95.391 261.99C95.391 261.58 95.742 261.25 96.166 261.25C96.591 261.25 96.942 261.58 96.942 261.99ZM63.562 271C66.443 271 68.068 269.21 68.068 266.25C68.068 263.32 66.443 261.55 63.692 261.55H60.645V271H63.562ZM61.79 269.98V262.56H63.618C65.834 262.56 66.96 263.96 66.96 266.25C66.96 268.56 65.834 269.98 63.489 269.98H61.79ZM75.935 267.49C75.935 269.69 74.642 271.15 72.722 271.15C70.801 271.15 69.509 269.69 69.509 267.49C69.509 265.28 70.801 263.82 72.722 263.82C74.642 263.82 75.935 265.28 75.935 267.49ZM72.722 270.17C71.263 270.17 70.598 268.91 70.598 267.49C70.598 266.07 71.263 264.8 72.722 264.8C74.18 264.8 74.845 266.07 74.845 267.49C74.845 268.91 74.18 270.17 72.722 270.17ZM80.571 271.15C78.521 271.15 77.265 269.69 77.265 267.51C77.265 265.33 78.54 263.82 80.46 263.82C81.937 263.82 83.507 264.72 83.507 267.36V267.82H78.359C78.41 269.34 79.292 270.17 80.571 270.17C81.425 270.17 82.066 269.8 82.343 269.06L83.396 269.36C83.064 270.43 82.011 271.15 80.571 271.15ZM78.359 266.88C78.433 265.78 79.214 264.8 80.46 264.8C81.642 264.8 82.399 265.68 82.399 266.88H78.359ZM87.676 263.82C89.079 263.82 89.845 264.49 90.187 265.5L89.208 265.77C89.019 265.28 88.627 264.76 87.676 264.76C86.808 264.76 86.161 265.2 86.161 265.81C86.161 266.36 86.54 266.64 87.38 266.85L88.433 267.1C89.698 267.41 90.316 268.04 90.316 269.02C90.316 270.25 89.194 271.15 87.546 271.15C86.097 271.15 85.104 270.51 84.85 269.3L85.884 269.04C86.078 269.8 86.637 270.19 87.528 270.19C88.543 270.19 89.19 269.69 89.19 269.08C89.19 268.59 88.853 268.25 88.137 268.08L86.955 267.81C85.653 267.5 85.072 266.85 85.072 265.87C85.072 264.67 86.18 263.82 87.676 263.82ZM95.612 271H96.702V263.91H95.612V271ZM101.781 263.91H100.267V262.21H99.177V263.91H98.106V264.83H99.177V269.26C99.177 270.5 100.175 271.09 101.098 271.09C101.504 271.09 101.763 271.02 101.91 270.96L101.689 269.98L101.657 269.987C101.564 270.008 101.423 270.04 101.209 270.04C100.729 270.04 100.267 269.89 100.267 268.97V264.83H101.781V263.91ZM111.268 270.04C111.046 270.5 110.4 271.17 109.163 271.17C107.815 271.17 106.744 270.37 106.744 268.99C106.744 267.36 108.18 267.07 109.495 266.9C109.718 266.871 109.919 266.848 110.099 266.827L110.099 266.827C110.957 266.73 111.323 266.688 111.323 266.25V266.22C111.323 265.31 110.829 264.78 109.828 264.78C108.789 264.78 108.221 265.33 107.981 265.85L106.947 265.48C107.501 264.19 108.72 263.82 109.791 263.82C110.696 263.82 112.413 264.08 112.413 266.33V271H111.323V270.04H111.268ZM109.329 270.19C108.461 270.19 107.833 269.8 107.833 269.04C107.833 268.21 108.59 267.95 109.44 267.84L109.466 267.837C109.946 267.785 111.142 267.656 111.323 267.44V268.43C111.323 269.32 110.622 270.19 109.329 270.19ZM117.301 264.8C116.257 264.8 115.491 265.5 115.491 266.73V271H114.401V263.91H115.454V265.02H115.546C115.879 264.3 116.544 263.82 117.615 263.82C119.05 263.82 120.015 264.68 120.015 266.49V271H118.926V266.57C118.926 265.46 118.312 264.8 117.301 264.8ZM125.09 263.91H123.576V262.21H122.486V263.91H121.415V264.83H122.486V269.26C122.486 270.5 123.483 271.09 124.407 271.09C124.813 271.09 125.071 271.02 125.219 270.96L124.997 269.98L124.965 269.987C124.872 270.008 124.731 270.04 124.517 270.04C124.037 270.04 123.576 269.89 123.576 268.97V264.83H125.09V263.91ZM127.818 271H126.729V263.91H127.818V271ZM127.283 262.73C127.707 262.73 128.058 262.39 128.058 261.99C128.058 261.58 127.707 261.25 127.283 261.25C126.858 261.25 126.507 261.58 126.507 261.99C126.507 262.39 126.858 262.73 127.283 262.73ZM135.483 268.93C135.298 270.19 134.264 271.15 132.694 271.15C130.7 271.15 129.481 269.62 129.481 267.49C129.481 265.33 130.755 263.82 132.676 263.82C134.172 263.82 135.298 264.7 135.483 266.03H134.393C134.227 265.39 133.654 264.8 132.694 264.8C131.42 264.8 130.571 265.85 130.571 267.45C130.571 269.1 131.402 270.17 132.694 270.17C133.544 270.17 134.19 269.71 134.393 268.93H135.483ZM137.075 271H138.165V263.91H137.075V271ZM138.405 261.99C138.405 262.39 138.054 262.73 137.629 262.73C137.205 262.73 136.854 262.39 136.854 261.99C136.854 261.58 137.205 261.25 137.629 261.25C138.054 261.25 138.405 261.58 138.405 261.99ZM140.16 273.66H141.25V269.91H141.342L141.371 269.958C141.62 270.366 142.098 271.15 143.41 271.15C145.183 271.15 146.42 269.73 146.42 267.47C146.42 265.24 145.183 263.82 143.392 263.82C142.107 263.82 141.648 264.552 141.397 264.953C141.377 264.984 141.359 265.013 141.342 265.04H141.213V263.91H140.16V273.66ZM143.263 264.8C141.933 264.8 141.231 265.87 141.231 267.45C141.231 269.06 141.951 270.17 143.263 270.17C144.629 270.17 145.331 268.97 145.331 267.45C145.331 265.96 144.647 264.8 143.263 264.8ZM150.169 271.17C151.406 271.17 152.052 270.5 152.274 270.04H152.329V271H153.419V266.33C153.419 264.08 151.701 263.82 150.797 263.82C149.726 263.82 148.507 264.19 147.953 265.48L148.987 265.85C149.227 265.33 149.795 264.78 150.834 264.78C151.835 264.78 152.329 265.31 152.329 266.22V266.25C152.329 266.688 151.963 266.73 151.105 266.827L151.105 266.827C150.925 266.848 150.724 266.871 150.501 266.9C149.185 267.07 147.75 267.36 147.75 268.99C147.75 270.37 148.821 271.17 150.169 271.17ZM148.839 269.04C148.839 269.8 149.467 270.19 150.335 270.19C151.628 270.19 152.329 269.32 152.329 268.43V267.44C152.149 267.656 150.956 267.785 150.474 267.837L150.446 267.84C149.596 267.95 148.839 268.21 148.839 269.04ZM158.491 263.91H156.977V262.21H155.887V263.91H154.816V264.83H155.887V269.26C155.887 270.5 156.885 271.09 157.808 271.09C158.214 271.09 158.473 271.02 158.62 270.96L158.399 269.98L158.365 269.988C158.271 270.009 158.132 270.04 157.919 270.04C157.439 270.04 156.977 269.89 156.977 268.97V264.83H158.491V263.91ZM163.027 271.15C160.977 271.15 159.721 269.69 159.721 267.51C159.721 265.33 160.996 263.82 162.916 263.82C164.393 263.82 165.963 264.72 165.963 267.36V267.82H160.816C160.866 269.34 161.748 270.17 163.027 270.17C163.881 270.17 164.523 269.8 164.8 269.06L165.852 269.36C165.52 270.43 164.467 271.15 163.027 271.15ZM160.816 266.88C160.889 265.78 161.67 264.8 162.916 264.8C164.098 264.8 164.855 265.68 164.855 266.88H160.816ZM173.788 263.82C175.191 263.82 175.958 264.49 176.299 265.5L175.32 265.77C175.131 265.28 174.739 264.76 173.788 264.76C172.92 264.76 172.274 265.2 172.274 265.81C172.274 266.36 172.652 266.64 173.492 266.85L174.545 267.1C175.81 267.41 176.428 268.04 176.428 269.02C176.428 270.25 175.307 271.15 173.659 271.15C172.209 271.15 171.216 270.51 170.963 269.3L171.997 269.04C172.191 269.8 172.749 270.19 173.64 270.19C174.656 270.19 175.302 269.69 175.302 269.08C175.302 268.59 174.965 268.25 174.249 268.08L173.068 267.81C171.766 267.5 171.184 266.85 171.184 265.87C171.184 264.67 172.292 263.82 173.788 263.82ZM178.77 273.64C179.753 273.64 180.451 273.12 180.857 272.03L183.876 263.93L182.685 263.91L180.728 269.56H180.654L178.696 263.91H177.514L180.137 271.04L179.934 271.59C179.546 272.65 179.047 272.75 178.253 272.55L177.976 273.51C178.087 273.57 178.401 273.64 178.77 273.64ZM187.829 263.82C189.232 263.82 189.999 264.49 190.34 265.5L189.362 265.77C189.172 265.28 188.78 264.76 187.829 264.76C186.961 264.76 186.315 265.2 186.315 265.81C186.315 266.36 186.693 266.64 187.533 266.85L188.586 267.1C189.851 267.41 190.469 268.04 190.469 269.02C190.469 270.25 189.348 271.15 187.7 271.15C186.25 271.15 185.257 270.51 185.004 269.3L186.038 269.04C186.232 269.8 186.79 270.19 187.681 270.19C188.697 270.19 189.343 269.69 189.343 269.08C189.343 268.59 189.006 268.25 188.29 268.08L187.109 267.81C185.807 267.5 185.225 266.85 185.225 265.87C185.225 264.67 186.333 263.82 187.829 263.82ZM195.193 263.91H193.679V262.21H192.59V263.91H191.519V264.83H192.59V269.26C192.59 270.5 193.587 271.09 194.51 271.09C194.916 271.09 195.175 271.02 195.323 270.96L195.101 269.98L195.069 269.987C194.976 270.008 194.835 270.04 194.621 270.04C194.141 270.04 193.679 269.89 193.679 268.97V264.83H195.193V263.91ZM202.554 269.36C202.222 270.43 201.169 271.15 199.729 271.15C197.679 271.15 196.424 269.69 196.424 267.51C196.424 265.33 197.698 263.82 199.618 263.82C201.095 263.82 202.665 264.72 202.665 267.36V267.82H197.518C197.568 269.34 198.45 270.17 199.729 270.17C200.583 270.17 201.225 269.8 201.502 269.06L202.554 269.36ZM197.518 266.88C197.592 265.78 198.372 264.8 199.618 264.8C200.8 264.8 201.557 265.68 201.557 266.88H197.518ZM205.412 271H204.322V263.91H205.375V265.02H205.467C205.763 264.26 206.446 263.82 207.369 263.82C208.302 263.82 208.92 264.26 209.271 265.02H209.345C209.71 264.28 210.453 263.82 211.469 263.82C212.734 263.82 213.629 264.59 213.629 266.25V271H212.54V266.25C212.54 265.21 211.875 264.8 211.099 264.8C210.102 264.8 209.53 265.47 209.53 266.38V271H208.422V266.14C208.422 265.34 207.845 264.8 207.018 264.8C206.169 264.8 205.412 265.53 205.412 266.57V271ZM60.497 291H61.587V283.91H60.497V291ZM61.827 281.99C61.827 282.39 61.476 282.73 61.051 282.73C60.626 282.73 60.276 282.39 60.276 281.99C60.276 281.58 60.626 281.25 61.051 281.25C61.476 281.25 61.827 281.58 61.827 281.99ZM68.605 285.5C68.263 284.49 67.497 283.82 66.093 283.82C64.598 283.82 63.49 284.67 63.49 285.87C63.49 286.85 64.071 287.5 65.373 287.81L66.555 288.08C67.271 288.25 67.608 288.59 67.608 289.08C67.608 289.69 66.961 290.19 65.946 290.19C65.055 290.19 64.496 289.8 64.302 289.04L63.268 289.3C63.522 290.51 64.515 291.15 65.964 291.15C67.612 291.15 68.734 290.25 68.734 289.02C68.734 288.04 68.116 287.41 66.851 287.1L65.798 286.85C64.958 286.64 64.579 286.36 64.579 285.81C64.579 285.2 65.226 284.76 66.093 284.76C67.044 284.76 67.437 285.28 67.626 285.77L68.605 285.5ZM72.885 283.82C74.289 283.82 75.055 284.49 75.397 285.5L74.418 285.77C74.229 285.28 73.836 284.76 72.885 284.76C72.018 284.76 71.371 285.2 71.371 285.81C71.371 286.36 71.75 286.64 72.59 286.85L73.643 287.1C74.907 287.41 75.526 288.04 75.526 289.02C75.526 290.25 74.404 291.15 72.756 291.15C71.307 291.15 70.314 290.51 70.06 289.3L71.094 289.04C71.288 289.8 71.847 290.19 72.738 290.19C73.753 290.19 74.4 289.69 74.4 289.08C74.4 288.59 74.063 288.25 73.347 288.08L72.165 287.81C70.863 287.5 70.282 286.85 70.282 285.87C70.282 284.67 71.39 283.82 72.885 283.82ZM81.635 288.1C81.635 289.43 80.619 290.04 79.807 290.04C78.902 290.04 78.256 289.38 78.256 288.34V283.91H77.166V288.41C77.166 290.22 78.126 291.09 79.456 291.09C80.527 291.09 81.229 290.52 81.561 289.8H81.635V291H82.724V283.91H81.635V288.1ZM90.518 289.36C90.186 290.43 89.133 291.15 87.693 291.15C85.643 291.15 84.387 289.69 84.387 287.51C84.387 285.33 85.662 283.82 87.582 283.82C89.059 283.82 90.629 284.72 90.629 287.36V287.82H85.482C85.532 289.34 86.414 290.17 87.693 290.17C88.547 290.17 89.189 289.8 89.466 289.06L90.518 289.36ZM85.482 286.88C85.555 285.78 86.336 284.8 87.582 284.8C88.764 284.8 89.521 285.68 89.521 286.88H85.482ZM94.798 283.82C96.201 283.82 96.967 284.49 97.309 285.5L96.33 285.77C96.141 285.28 95.749 284.76 94.798 284.76C93.93 284.76 93.283 285.2 93.283 285.81C93.283 286.36 93.662 286.64 94.502 286.85L95.555 287.1C96.82 287.41 97.438 288.04 97.438 289.02C97.438 290.25 96.316 291.15 94.668 291.15C93.219 291.15 92.226 290.51 91.972 289.3L93.006 289.04C93.2 289.8 93.759 290.19 94.65 290.19C95.665 290.19 96.312 289.69 96.312 289.08C96.312 288.59 95.975 288.25 95.259 288.08L94.077 287.81C92.776 287.5 92.194 286.85 92.194 285.87C92.194 284.67 93.302 283.82 94.798 283.82ZM105.892 283.91H104.304V283.19C104.304 282.49 104.6 282.12 105.32 282.12C105.625 282.12 105.807 282.186 105.919 282.226L105.929 282.23L106.243 281.29C106.077 281.21 105.744 281.1 105.209 281.1C104.193 281.1 103.215 281.71 103.215 282.93V283.91H102.07V284.83H103.215V291H104.304V284.83H105.892V283.91ZM108.509 291H107.419V283.91H108.472V284.98H108.545C108.804 284.28 109.543 283.8 110.392 283.8C110.554 283.8 110.84 283.81 110.964 283.82V284.92C110.951 284.918 110.932 284.915 110.907 284.911C110.787 284.891 110.541 284.85 110.3 284.85C109.266 284.85 108.509 285.55 108.509 286.51V291ZM114.921 291.15C116.841 291.15 118.134 289.69 118.134 287.49C118.134 285.28 116.841 283.82 114.921 283.82C113 283.82 111.708 285.28 111.708 287.49C111.708 289.69 113 291.15 114.921 291.15ZM112.797 287.49C112.797 288.91 113.462 290.17 114.921 290.17C116.38 290.17 117.044 288.91 117.044 287.49C117.044 286.07 116.38 284.8 114.921 284.8C113.462 284.8 112.797 286.07 112.797 287.49ZM119.797 291H120.886V286.57C120.886 285.53 121.644 284.8 122.493 284.8C123.319 284.8 123.896 285.34 123.896 286.14V291H125.004V286.38C125.004 285.47 125.577 284.8 126.574 284.8C127.35 284.8 128.014 285.21 128.014 286.25V291H129.104V286.25C129.104 284.59 128.208 283.82 126.943 283.82C125.928 283.82 125.184 284.28 124.82 285.02H124.746C124.395 284.26 123.776 283.82 122.844 283.82C121.921 283.82 121.237 284.26 120.942 285.02H120.85V283.91H119.797V291ZM137.43 291H136.359L134.198 283.91H135.343L136.876 289.34H136.949L138.464 283.91H139.627L141.123 289.32H141.197L142.729 283.91H143.874L141.714 291H140.643L139.092 285.55H138.981L137.43 291ZM148.046 291.15C149.487 291.15 150.539 290.43 150.872 289.36L149.819 289.06C149.542 289.8 148.9 290.17 148.046 290.17C146.768 290.17 145.886 289.34 145.835 287.82H150.982V287.36C150.982 284.72 149.413 283.82 147.936 283.82C146.015 283.82 144.741 285.33 144.741 287.51C144.741 289.69 145.997 291.15 148.046 291.15ZM147.936 284.8C146.689 284.8 145.909 285.78 145.835 286.88H149.874C149.874 285.68 149.117 284.8 147.936 284.8ZM154.726 291.17C155.964 291.17 156.61 290.5 156.831 290.04H156.887V291H157.976V286.33C157.976 284.08 156.259 283.82 155.354 283.82C154.283 283.82 153.064 284.19 152.51 285.48L153.545 285.85C153.785 285.33 154.352 284.78 155.391 284.78C156.393 284.78 156.887 285.31 156.887 286.22V286.25C156.887 286.688 156.52 286.73 155.663 286.827L155.663 286.827L155.662 286.827C155.483 286.848 155.282 286.871 155.059 286.9C153.743 287.07 152.307 287.36 152.307 288.99C152.307 290.37 153.378 291.17 154.726 291.17ZM153.397 289.04C153.397 289.8 154.025 290.19 154.893 290.19C156.185 290.19 156.887 289.32 156.887 288.43V287.44C156.705 287.656 155.509 287.785 155.029 287.837L155.003 287.84C154.154 287.95 153.397 288.21 153.397 289.04ZM159.965 291H161.054V286.51C161.054 285.55 161.812 284.85 162.846 284.85C163.086 284.85 163.333 284.891 163.453 284.911C163.478 284.915 163.497 284.918 163.51 284.92V283.82C163.386 283.81 163.1 283.8 162.938 283.8C162.089 283.8 161.35 284.28 161.091 284.98H161.017V283.91H159.965V291ZM172.65 290.04C172.428 290.5 171.782 291.17 170.545 291.17C169.197 291.17 168.126 290.37 168.126 288.99C168.126 287.36 169.561 287.07 170.877 286.9C171.101 286.871 171.301 286.848 171.481 286.827C172.339 286.73 172.705 286.688 172.705 286.25V286.22C172.705 285.31 172.211 284.78 171.21 284.78C170.171 284.78 169.603 285.33 169.363 285.85L168.329 285.48C168.883 284.19 170.102 283.82 171.173 283.82C172.077 283.82 173.795 284.08 173.795 286.33V291H172.705V290.04H172.65ZM170.711 290.19C169.843 290.19 169.215 289.8 169.215 289.04C169.215 288.21 169.972 287.95 170.822 287.84L170.85 287.837C171.332 287.785 172.525 287.656 172.705 287.44V288.43C172.705 289.32 172.004 290.19 170.711 290.19ZM178.682 284.8C177.639 284.8 176.873 285.5 176.873 286.73V291H175.783V283.91H176.836V285.02H176.928C177.261 284.3 177.925 283.82 178.996 283.82C180.432 283.82 181.397 284.68 181.397 286.49V291H180.307V286.57C180.307 285.46 179.693 284.8 178.682 284.8ZM186.065 291.15C187.376 291.15 187.853 290.369 188.103 289.96L188.134 289.91H188.263V291H189.315V281.55H188.226V285.04H188.134C188.116 285.013 188.098 284.983 188.078 284.951C187.826 284.55 187.367 283.82 186.084 283.82C184.293 283.82 183.055 285.24 183.055 287.47C183.055 289.73 184.293 291.15 186.065 291.15ZM184.145 287.45C184.145 288.97 184.847 290.17 186.213 290.17C187.524 290.17 188.244 289.06 188.244 287.45C188.244 285.87 187.543 284.8 186.213 284.8C184.828 284.8 184.145 285.96 184.145 287.45ZM198.202 283.91H196.688V282.21H195.598V283.91H194.527V284.83H195.598V289.26C195.598 290.5 196.596 291.09 197.519 291.09C197.925 291.09 198.184 291.02 198.331 290.96L198.11 289.98L198.076 289.988C197.982 290.009 197.843 290.04 197.63 290.04C197.15 290.04 196.688 289.89 196.688 288.97V284.83H198.202V283.91ZM205.563 289.36C205.231 290.43 204.178 291.15 202.738 291.15C200.688 291.15 199.432 289.69 199.432 287.51C199.432 285.33 200.706 283.82 202.627 283.82C204.104 283.82 205.674 284.72 205.674 287.36V287.82H200.526C200.577 289.34 201.459 290.17 202.738 290.17C203.592 290.17 204.233 289.8 204.51 289.06L205.563 289.36ZM200.526 286.88C200.6 285.78 201.381 284.8 202.627 284.8C203.809 284.8 204.566 285.68 204.566 286.88H200.526ZM211.523 290.04C211.301 290.5 210.655 291.17 209.418 291.17C208.07 291.17 206.999 290.37 206.999 288.99C206.999 287.36 208.434 287.07 209.75 286.9C209.974 286.871 210.174 286.848 210.354 286.827C211.212 286.73 211.578 286.688 211.578 286.25V286.22C211.578 285.31 211.084 284.78 210.083 284.78C209.044 284.78 208.476 285.33 208.236 285.85L207.202 285.48C207.756 284.19 208.975 283.82 210.046 283.82C210.95 283.82 212.668 284.08 212.668 286.33V291H211.578V290.04H211.523ZM209.584 290.19C208.716 290.19 208.088 289.8 208.088 289.04C208.088 288.21 208.845 287.95 209.695 287.84L209.723 287.837C210.205 287.785 211.398 287.656 211.578 287.44V288.43C211.578 289.32 210.877 290.19 209.584 290.19ZM215.746 291H214.656V283.91H215.709V284.98H215.783C216.041 284.28 216.78 283.8 217.629 283.8C217.791 283.8 218.077 283.81 218.202 283.82V284.92C218.189 284.918 218.169 284.915 218.143 284.911C218.022 284.891 217.776 284.85 217.537 284.85C216.503 284.85 215.746 285.55 215.746 286.51V291ZM220.915 288.34H222.023V288.29C222.042 287.14 222.337 286.64 223.15 286.13C223.962 285.64 224.442 284.93 224.442 283.91C224.442 282.47 223.39 281.42 221.765 281.42C220.269 281.42 219.082 282.34 219.013 283.91H220.176C220.246 282.82 221.007 282.38 221.765 282.38C222.632 282.38 223.334 282.95 223.334 283.85C223.334 284.59 222.914 285.11 222.374 285.44C221.469 285.99 220.929 286.53 220.915 288.29V288.34ZM222.337 290.24C222.337 290.7 221.963 291.07 221.506 291.07C221.049 291.07 220.675 290.7 220.675 290.24C220.675 289.79 221.049 289.41 221.506 289.41C221.963 289.41 222.337 289.79 222.337 290.24Z" fill="#262B35"/>
</g>
<g id="massage-1">
<g id="Path_17" filter="url(#filter1_d_0_826)">
<path d="M0.5 117C0.5 114.24 2.739 112 5.5 112H195.5C198.261 112 200.5 114.24 200.5 117V168C200.5 170.76 198.261 173 195.5 173H175.201L175.884 187L156.567 173H5.5C2.739 173 0.5 170.76 0.5 168V117Z" fill="white"/>
</g>
<path id="Shape_3" fill-rule="evenodd" clip-rule="evenodd" d="M21.068 131.25C21.068 134.21 19.443 136 16.562 136H13.645V126.55H16.692C19.443 126.55 21.068 128.32 21.068 131.25ZM14.79 127.56V134.98H16.489C18.834 134.98 19.96 133.56 19.96 131.25C19.96 128.96 18.834 127.56 16.618 127.56H14.79ZM25.722 136.15C27.642 136.15 28.935 134.69 28.935 132.49C28.935 130.28 27.642 128.82 25.722 128.82C23.801 128.82 22.509 130.28 22.509 132.49C22.509 134.69 23.801 136.15 25.722 136.15ZM23.598 132.49C23.598 133.91 24.263 135.17 25.722 135.17C27.18 135.17 27.845 133.91 27.845 132.49C27.845 131.07 27.18 129.8 25.722 129.8C24.263 129.8 23.598 131.07 23.598 132.49ZM30.265 132.51C30.265 134.69 31.521 136.15 33.571 136.15C35.011 136.15 36.064 135.43 36.396 134.36L35.343 134.06C35.066 134.8 34.425 135.17 33.571 135.17C32.292 135.17 31.41 134.34 31.359 132.82H36.507V132.36C36.507 129.72 34.937 128.82 33.46 128.82C31.54 128.82 30.265 130.33 30.265 132.51ZM33.46 129.8C32.214 129.8 31.433 130.78 31.359 131.88H35.399C35.399 130.68 34.642 129.8 33.46 129.8ZM43.187 130.5C42.845 129.49 42.079 128.82 40.676 128.82C39.18 128.82 38.072 129.67 38.072 130.87C38.072 131.85 38.653 132.5 39.955 132.81L41.137 133.08C41.853 133.25 42.19 133.59 42.19 134.08C42.19 134.69 41.543 135.19 40.528 135.19C39.637 135.19 39.078 134.8 38.884 134.04L37.85 134.3C38.104 135.51 39.097 136.15 40.546 136.15C42.194 136.15 43.316 135.25 43.316 134.02C43.316 133.04 42.698 132.41 41.433 132.1L40.38 131.85C39.54 131.64 39.161 131.36 39.161 130.81C39.161 130.2 39.808 129.76 40.676 129.76C41.627 129.76 42.019 130.28 42.208 130.77L43.187 130.5ZM51.401 137.03C50.994 138.12 50.297 138.64 49.314 138.64C48.945 138.64 48.631 138.57 48.52 138.51L48.797 137.55C49.591 137.75 50.09 137.65 50.477 136.59L50.681 136.04L48.058 128.91H49.24L51.198 134.56H51.271L53.229 128.91L54.42 128.93L51.401 137.03ZM58.488 136.15C60.409 136.15 61.701 134.69 61.701 132.49C61.701 130.28 60.409 128.82 58.488 128.82C56.568 128.82 55.275 130.28 55.275 132.49C55.275 134.69 56.568 136.15 58.488 136.15ZM56.365 132.49C56.365 133.91 57.029 135.17 58.488 135.17C59.947 135.17 60.612 133.91 60.612 132.49C60.612 131.07 59.947 129.8 58.488 129.8C57.029 129.8 56.365 131.07 56.365 132.49ZM67.833 133.1C67.833 134.43 66.817 135.04 66.005 135.04C65.1 135.04 64.454 134.38 64.454 133.34V128.91H63.364V133.41C63.364 135.22 64.325 136.09 65.654 136.09C66.725 136.09 67.427 135.52 67.759 134.8H67.833V136H68.923V128.91H67.833V133.1ZM72.008 136H70.918V128.91H71.971V129.98H72.044C72.303 129.28 73.042 128.8 73.891 128.8C74.053 128.8 74.339 128.81 74.464 128.82V129.92C74.4508 129.918 74.4306 129.915 74.4046 129.911C74.2838 129.891 74.0383 129.85 73.799 129.85C72.765 129.85 72.008 130.55 72.008 131.51V136ZM80.501 131.73C80.501 130.5 81.29 129.8 82.366 129.8C83.391 129.8 84.009 130.44 84.009 131.57V136H85.099V131.49C85.099 129.67 84.129 128.82 82.68 128.82C81.562 128.82 80.925 129.28 80.593 130.02H80.501V126.55H79.411V136H80.501V131.73ZM93.186 132.49C93.186 134.69 91.893 136.15 89.973 136.15C88.052 136.15 86.759 134.69 86.759 132.49C86.759 130.28 88.052 128.82 89.973 128.82C91.893 128.82 93.186 130.28 93.186 132.49ZM89.973 135.17C88.514 135.17 87.849 133.91 87.849 132.49C87.849 131.07 88.514 129.8 89.973 129.8C91.431 129.8 92.096 131.07 92.096 132.49C92.096 133.91 91.431 135.17 89.973 135.17ZM95.938 136H94.849V128.91H95.901V130.02H95.994C96.289 129.26 96.972 128.82 97.896 128.82C98.828 128.82 99.447 129.26 99.798 130.02H99.871C100.236 129.28 100.979 128.82 101.995 128.82C103.26 128.82 104.156 129.59 104.156 131.25V136H103.066V131.25C103.066 130.21 102.401 129.8 101.626 129.8C100.629 129.8 100.056 130.47 100.056 131.38V136H98.948V131.14C98.948 130.34 98.371 129.8 97.545 129.8C96.695 129.8 95.938 130.53 95.938 131.57V136ZM109.121 136.15C110.561 136.15 111.613 135.43 111.946 134.36L110.893 134.06C110.616 134.8 109.975 135.17 109.121 135.17C107.842 135.17 106.96 134.34 106.909 132.82H112.057V132.36C112.057 129.72 110.487 128.82 109.01 128.82C107.089 128.82 105.815 130.33 105.815 132.51C105.815 134.69 107.071 136.15 109.121 136.15ZM109.01 129.8C107.763 129.8 106.983 130.78 106.909 131.88H110.949C110.949 130.68 110.192 129.8 109.01 129.8ZM117.37 136H118.46V133.35L119.221 132.64L121.876 136H123.261L120.043 131.94L123.039 128.91H121.691L118.589 132.07H118.46V126.55H117.37V136ZM127.341 129.8C126.297 129.8 125.531 130.5 125.531 131.73V136H124.441V128.91H125.494V130.02H125.586C125.919 129.3 126.584 128.82 127.655 128.82C129.09 128.82 130.055 129.68 130.055 131.49V136H128.966V131.57C128.966 130.46 128.352 129.8 127.341 129.8ZM134.927 136.15C136.847 136.15 138.14 134.69 138.14 132.49C138.14 130.28 136.847 128.82 134.927 128.82C133.006 128.82 131.714 130.28 131.714 132.49C131.714 134.69 133.006 136.15 134.927 136.15ZM132.803 132.49C132.803 133.91 133.468 135.17 134.927 135.17C136.385 135.17 137.05 133.91 137.05 132.49C137.05 131.07 136.385 129.8 134.927 129.8C133.468 129.8 132.803 131.07 132.803 132.49ZM141.168 136H142.239L143.79 130.55H143.901L145.452 136H146.523L148.684 128.91H147.539L146.006 134.32H145.932L144.437 128.91H143.273L141.759 134.34H141.685L140.153 128.91H139.008L141.168 136ZM156.458 136H155.387L153.226 128.91H154.371L155.904 134.34H155.978L157.492 128.91H158.655L160.151 134.32H160.225L161.758 128.91H162.903L160.742 136H159.671L158.12 130.55H158.009L156.458 136ZM165.432 131.73C165.432 130.5 166.222 129.8 167.297 129.8C168.322 129.8 168.941 130.44 168.941 131.57V136H170.03V131.49C170.03 129.67 169.061 128.82 167.611 128.82C166.494 128.82 165.857 129.28 165.525 130.02H165.432V126.55H164.343V136H165.432V131.73ZM177.822 134.36C177.489 135.43 176.437 136.15 174.997 136.15C172.947 136.15 171.691 134.69 171.691 132.51C171.691 130.33 172.965 128.82 174.886 128.82C176.363 128.82 177.933 129.72 177.933 132.36V132.82H172.785C172.836 134.34 173.718 135.17 174.997 135.17C175.851 135.17 176.492 134.8 176.769 134.06L177.822 134.36ZM172.785 131.88C172.859 130.78 173.639 129.8 174.886 129.8C176.068 129.8 176.825 130.68 176.825 131.88H172.785ZM182.489 129.8C181.446 129.8 180.679 130.5 180.679 131.73V136H179.59V128.91H180.642V130.02H180.735C181.067 129.3 181.732 128.82 182.803 128.82C184.239 128.82 185.204 129.68 185.204 131.49V136H184.114V131.57C184.114 130.46 183.5 129.8 182.489 129.8ZM15.584 156.17C16.821 156.17 17.467 155.5 17.689 155.04H17.744V156H18.834V151.33C18.834 149.08 17.116 148.82 16.212 148.82C15.141 148.82 13.922 149.19 13.368 150.48L14.402 150.85C14.642 150.33 15.21 149.78 16.249 149.78C17.25 149.78 17.744 150.31 17.744 151.22V151.25C17.744 151.688 17.378 151.73 16.5197 151.827H16.5197C16.3403 151.848 16.1395 151.871 15.916 151.9C14.6 152.07 13.165 152.36 13.165 153.99C13.165 155.37 14.236 156.17 15.584 156.17ZM14.254 154.04C14.254 154.8 14.882 155.19 15.75 155.19C17.043 155.19 17.744 154.32 17.744 153.43V152.44C17.5636 152.656 16.3707 152.785 15.8893 152.837L15.861 152.84C15.011 152.95 14.254 153.21 14.254 154.04ZM24.479 158.66H25.568V154.91H25.66L25.6894 154.958C25.9378 155.366 26.4158 156.15 27.729 156.15C29.501 156.15 30.739 154.73 30.739 152.47C30.739 150.24 29.501 148.82 27.71 148.82C26.4245 148.82 25.966 149.552 25.7149 149.953C25.6954 149.984 25.6772 150.013 25.66 150.04H25.531V148.91H24.479V158.66ZM27.581 149.8C26.251 149.8 25.55 150.87 25.55 152.45C25.55 154.06 26.27 155.17 27.581 155.17C28.947 155.17 29.649 153.97 29.649 152.45C29.649 150.96 28.966 149.8 27.581 149.8ZM32.4 156H33.49V148.91H32.4V156ZM33.73 146.99C33.73 147.39 33.379 147.73 32.954 147.73C32.53 147.73 32.179 147.39 32.179 146.99C32.179 146.58 32.53 146.25 32.954 146.25C33.379 146.25 33.73 146.58 33.73 146.99ZM35.485 158.66H36.575V154.91H36.667L36.6964 154.958C36.9448 155.366 37.4228 156.15 38.735 156.15C40.508 156.15 41.745 154.73 41.745 152.47C41.745 150.24 40.508 148.82 38.717 148.82C37.4315 148.82 36.973 149.552 36.7219 149.953L36.7217 149.954L36.7213 149.954L36.6963 149.994C36.6862 150.01 36.6764 150.025 36.667 150.04H36.538V148.91H35.485V158.66ZM38.588 149.8C37.258 149.8 36.556 150.87 36.556 152.45C36.556 154.06 37.277 155.17 38.588 155.17C39.954 155.17 40.656 153.97 40.656 152.45C40.656 150.96 39.973 149.8 38.588 149.8ZM46.38 156.15C47.821 156.15 48.873 155.43 49.206 154.36L48.153 154.06C47.876 154.8 47.234 155.17 46.38 155.17C45.102 155.17 44.22 154.34 44.169 152.82H49.316V152.36C49.316 149.72 47.747 148.82 46.27 148.82C44.349 148.82 43.075 150.33 43.075 152.51C43.075 154.69 44.331 156.15 46.38 156.15ZM46.27 149.8C45.023 149.8 44.243 150.78 44.169 151.88H48.208C48.208 150.68 47.451 149.8 46.27 149.8ZM54.63 156H55.719V148.91H54.63V156ZM55.96 146.99C55.96 147.39 55.609 147.73 55.184 147.73C54.759 147.73 54.408 147.39 54.408 146.99C54.408 146.58 54.759 146.25 55.184 146.25C55.609 146.25 55.96 146.58 55.96 146.99ZM62.738 150.5C62.396 149.49 61.63 148.82 60.226 148.82C58.731 148.82 57.623 149.67 57.623 150.87C57.623 151.85 58.204 152.5 59.506 152.81L60.688 153.08C61.403 153.25 61.741 153.59 61.741 154.08C61.741 154.69 61.094 155.19 60.079 155.19C59.188 155.19 58.629 154.8 58.435 154.04L57.401 154.3C57.655 155.51 58.647 156.15 60.097 156.15C61.745 156.15 62.867 155.25 62.867 154.02C62.867 153.04 62.248 152.41 60.983 152.1L59.931 151.85C59.091 151.64 58.712 151.36 58.712 150.81C58.712 150.2 59.358 149.76 60.226 149.76C61.177 149.76 61.57 150.28 61.759 150.77L62.738 150.5ZM68.163 146.55H69.253V156H68.163V146.55ZM74.221 156.15C75.661 156.15 76.714 155.43 77.046 154.36L75.994 154.06C75.717 154.8 75.075 155.17 74.221 155.17C72.942 155.17 72.061 154.34 72.01 152.82H77.157V152.36C77.157 149.72 75.588 148.82 74.11 148.82C72.19 148.82 70.916 150.33 70.916 152.51C70.916 154.69 72.171 156.15 74.221 156.15ZM74.11 149.8C72.864 149.8 72.084 150.78 72.01 151.88H76.049C76.049 150.68 75.292 149.8 74.11 149.8ZM80.901 156.17C82.138 156.17 82.785 155.5 83.006 155.04H83.062V156H84.151V151.33C84.151 149.08 82.434 148.82 81.529 148.82C80.458 148.82 79.239 149.19 78.685 150.48L79.719 150.85C79.959 150.33 80.527 149.78 81.566 149.78C82.568 149.78 83.062 150.31 83.062 151.22V151.25C83.062 151.688 82.6954 151.73 81.8379 151.827L81.8378 151.827L81.8373 151.827C81.658 151.848 81.4573 151.871 81.234 151.9C79.918 152.07 78.482 152.36 78.482 153.99C78.482 155.37 79.553 156.17 80.901 156.17ZM79.572 154.04C79.572 154.8 80.199 155.19 81.067 155.19C82.36 155.19 83.062 154.32 83.062 153.43V152.44C82.8803 152.656 81.6844 152.785 81.2038 152.837L81.178 152.84C80.329 152.95 79.572 153.21 79.572 154.04ZM86.14 156H87.229V153.35L87.991 152.64L90.645 156H92.03L88.813 151.94L91.809 148.91H90.461L87.358 152.07H87.229V146.55H86.14V156ZM94.301 156H93.211V148.91H94.301V156ZM93.765 147.73C94.19 147.73 94.541 147.39 94.541 146.99C94.541 146.58 94.19 146.25 93.765 146.25C93.34 146.25 92.989 146.58 92.989 146.99C92.989 147.39 93.34 147.73 93.765 147.73ZM99.195 149.8C98.152 149.8 97.385 150.5 97.385 151.73V156H96.296V148.91H97.349V150.02H97.441C97.773 149.3 98.438 148.82 99.509 148.82C100.945 148.82 101.91 149.68 101.91 151.49V156H100.82V151.57C100.82 150.46 100.206 149.8 99.195 149.8ZM106.763 158.81C108.462 158.81 109.828 158.03 109.828 156.2V148.91H108.775V150.04H108.665L108.649 150.015L108.617 149.965C108.365 149.566 107.894 148.82 106.597 148.82C104.805 148.82 103.568 150.24 103.568 152.42C103.568 154.63 104.861 155.89 106.578 155.89C107.913 155.89 108.373 155.137 108.619 154.734L108.646 154.69H108.739V156.13C108.739 157.31 107.908 157.85 106.763 157.85C105.524 157.85 105.058 157.221 104.765 156.826L104.731 156.78L103.864 157.38C104.307 158.13 105.179 158.81 106.763 158.81ZM104.658 152.4C104.658 153.88 105.359 154.91 106.726 154.91C108.037 154.91 108.757 153.97 108.757 152.4C108.757 150.87 108.055 149.8 106.726 149.8C105.341 149.8 104.658 150.96 104.658 152.4ZM113.244 153.34H114.352V153.29C114.371 152.14 114.666 151.64 115.479 151.13C116.291 150.64 116.771 149.93 116.771 148.91C116.771 147.47 115.719 146.42 114.094 146.42C112.598 146.42 111.411 147.34 111.342 148.91H112.506C112.575 147.82 113.337 147.38 114.094 147.38C114.962 147.38 115.663 147.95 115.663 148.85C115.663 149.59 115.243 150.11 114.703 150.44C113.798 150.99 113.258 151.53 113.244 153.29V153.34ZM114.666 155.24C114.666 155.7 114.292 156.07 113.835 156.07C113.378 156.07 113.004 155.7 113.004 155.24C113.004 154.79 113.378 154.41 113.835 154.41C114.292 154.41 114.666 154.79 114.666 155.24Z" fill="#262B35"/>
</g>
<g id="massage-2">
<g id="Path_18" filter="url(#filter2_d_0_826)">
<path d="M252.5 59C252.5 56.24 254.739 54 257.5 54H447.5C450.261 54 452.5 56.24 452.5 59V110C452.5 112.76 450.261 115 447.5 115H297.721C295.962 115 294.333 115.92 293.43 117.43L286.51 129L278.676 117.23C277.749 115.84 276.187 115 274.514 115H257.5C254.739 115 252.5 112.76 252.5 110V59Z" fill="white"/>
</g>
<path id="Shape_4" fill-rule="evenodd" clip-rule="evenodd" d="M269.562 78C272.443 78 274.068 76.21 274.068 73.25C274.068 70.32 272.443 68.55 269.692 68.55H266.645V78H269.562ZM267.79 76.98V69.56H269.618C271.834 69.56 272.96 70.96 272.96 73.25C272.96 75.56 271.834 76.98 269.489 76.98H267.79ZM281.935 74.49C281.935 76.69 280.642 78.15 278.722 78.15C276.801 78.15 275.509 76.69 275.509 74.49C275.509 72.28 276.801 70.82 278.722 70.82C280.642 70.82 281.935 72.28 281.935 74.49ZM278.722 77.17C277.263 77.17 276.598 75.91 276.598 74.49C276.598 73.07 277.263 71.8 278.722 71.8C280.18 71.8 280.845 73.07 280.845 74.49C280.845 75.91 280.18 77.17 278.722 77.17ZM286.571 78.15C284.521 78.15 283.265 76.69 283.265 74.51C283.265 72.33 284.54 70.82 286.46 70.82C287.937 70.82 289.507 71.72 289.507 74.36V74.82H284.359C284.41 76.34 285.292 77.17 286.571 77.17C287.425 77.17 288.066 76.8 288.343 76.06L289.396 76.36C289.064 77.43 288.011 78.15 286.571 78.15ZM284.359 73.88C284.433 72.78 285.214 71.8 286.46 71.8C287.642 71.8 288.399 72.68 288.399 73.88H284.359ZM293.676 70.82C295.079 70.82 295.845 71.49 296.187 72.5L295.208 72.77C295.019 72.28 294.627 71.76 293.676 71.76C292.808 71.76 292.161 72.2 292.161 72.81C292.161 73.36 292.54 73.64 293.38 73.85L294.433 74.1C295.698 74.41 296.316 75.04 296.316 76.02C296.316 77.25 295.194 78.15 293.546 78.15C292.097 78.15 291.104 77.51 290.85 76.3L291.884 76.04C292.078 76.8 292.637 77.19 293.528 77.19C294.543 77.19 295.19 76.69 295.19 76.08C295.19 75.59 294.853 75.25 294.137 75.08L292.955 74.81C291.653 74.5 291.072 73.85 291.072 72.87C291.072 71.67 292.18 70.82 293.676 70.82ZM302.314 80.64C303.297 80.64 303.994 80.12 304.401 79.03L307.42 70.93L306.229 70.91L304.271 76.56H304.198L302.24 70.91H301.058L303.681 78.04L303.477 78.59C303.09 79.65 302.591 79.75 301.797 79.55L301.52 80.51C301.631 80.57 301.945 80.64 302.314 80.64ZM314.701 74.49C314.701 76.69 313.409 78.15 311.488 78.15C309.568 78.15 308.275 76.69 308.275 74.49C308.275 72.28 309.568 70.82 311.488 70.82C313.409 70.82 314.701 72.28 314.701 74.49ZM311.488 77.17C310.029 77.17 309.365 75.91 309.365 74.49C309.365 73.07 310.029 71.8 311.488 71.8C312.947 71.8 313.612 73.07 313.612 74.49C313.612 75.91 312.947 77.17 311.488 77.17ZM319.005 77.04C319.817 77.04 320.833 76.43 320.833 75.1V70.91H321.923V78H320.833V76.8H320.759C320.427 77.52 319.725 78.09 318.654 78.09C317.325 78.09 316.364 77.22 316.364 75.41V70.91H317.454V75.34C317.454 76.38 318.1 77.04 319.005 77.04ZM323.918 78H325.008V73.51C325.008 72.55 325.765 71.85 326.799 71.85C327.038 71.85 327.284 71.8906 327.405 71.9106C327.431 71.9149 327.451 71.9183 327.464 71.92V70.82C327.339 70.81 327.053 70.8 326.891 70.8C326.042 70.8 325.303 71.28 325.044 71.98H324.971V70.91H323.918V78ZM335.366 71.8C334.29 71.8 333.501 72.5 333.501 73.73V78H332.411V68.55H333.501V72.02H333.593C333.925 71.28 334.562 70.82 335.68 70.82C337.129 70.82 338.099 71.67 338.099 73.49V78H337.009V73.57C337.009 72.44 336.391 71.8 335.366 71.8ZM342.973 78.15C344.893 78.15 346.186 76.69 346.186 74.49C346.186 72.28 344.893 70.82 342.973 70.82C341.052 70.82 339.759 72.28 339.759 74.49C339.759 76.69 341.052 78.15 342.973 78.15ZM340.849 74.49C340.849 75.91 341.514 77.17 342.973 77.17C344.431 77.17 345.096 75.91 345.096 74.49C345.096 73.07 344.431 71.8 342.973 71.8C341.514 71.8 340.849 73.07 340.849 74.49ZM347.849 78H348.938V73.57C348.938 72.53 349.695 71.8 350.545 71.8C351.371 71.8 351.948 72.34 351.948 73.14V78H353.056V73.38C353.056 72.47 353.629 71.8 354.626 71.8C355.401 71.8 356.066 72.21 356.066 73.25V78H357.156V73.25C357.156 71.59 356.26 70.82 354.995 70.82C353.979 70.82 353.236 71.28 352.871 72.02H352.798C352.447 71.26 351.828 70.82 350.896 70.82C349.972 70.82 349.289 71.26 348.994 72.02H348.901V70.91H347.849V78ZM364.946 76.36C364.613 77.43 363.561 78.15 362.121 78.15C360.071 78.15 358.815 76.69 358.815 74.51C358.815 72.33 360.089 70.82 362.01 70.82C363.487 70.82 365.057 71.72 365.057 74.36V74.82H359.909C359.96 76.34 360.842 77.17 362.121 77.17C362.975 77.17 363.616 76.8 363.893 76.06L364.946 76.36ZM359.909 73.88C359.983 72.78 360.763 71.8 362.01 71.8C363.192 71.8 363.949 72.68 363.949 73.88H359.909ZM371.46 78H370.37V68.55H371.46V74.07H371.589L374.691 70.91H376.039L373.043 73.94L376.261 78H374.876L372.221 74.64L371.46 75.35V78ZM378.531 73.73C378.531 72.5 379.297 71.8 380.341 71.8C381.352 71.8 381.966 72.46 381.966 73.57V78H383.055V73.49C383.055 71.68 382.09 70.82 380.655 70.82C379.584 70.82 378.919 71.3 378.586 72.02H378.494V70.91H377.441V78H378.531V73.73ZM391.14 74.49C391.14 76.69 389.847 78.15 387.927 78.15C386.006 78.15 384.714 76.69 384.714 74.49C384.714 72.28 386.006 70.82 387.927 70.82C389.847 70.82 391.14 72.28 391.14 74.49ZM387.927 77.17C386.468 77.17 385.803 75.91 385.803 74.49C385.803 73.07 386.468 71.8 387.927 71.8C389.385 71.8 390.05 73.07 390.05 74.49C390.05 75.91 389.385 77.17 387.927 77.17ZM395.239 78H394.168L392.008 70.91H393.153L394.685 76.34H394.759L396.273 70.91H397.437L398.932 76.32H399.006L400.539 70.91H401.684L399.523 78H398.452L396.901 72.55H396.79L395.239 78ZM268.584 98.17C269.821 98.17 270.467 97.5 270.689 97.04H270.744V98H271.834V93.33C271.834 91.08 270.116 90.82 269.212 90.82C268.141 90.82 266.922 91.1901 266.368 92.48L267.402 92.85C267.642 92.33 268.21 91.78 269.249 91.78C270.25 91.78 270.744 92.31 270.744 93.22V93.25C270.744 93.6884 270.378 93.73 269.52 93.8275H269.52C269.34 93.8479 269.14 93.8707 268.916 93.9C267.6 94.07 266.165 94.3601 266.165 95.99C266.165 97.37 267.236 98.17 268.584 98.17ZM267.254 96.04C267.254 96.8 267.882 97.19 268.75 97.19C270.043 97.19 270.744 96.32 270.744 95.43V94.44C270.564 94.6557 269.371 94.7849 268.889 94.837L268.861 94.84C268.011 94.95 267.254 95.21 267.254 96.04ZM273.97 98H275.023V96.91H275.152L275.182 96.9582C275.43 97.3657 275.908 98.15 277.22 98.15C278.993 98.15 280.23 96.73 280.23 94.47C280.23 92.24 278.993 90.82 277.202 90.82C275.917 90.82 275.458 91.5522 275.207 91.9533L275.207 91.9535C275.187 91.9845 275.169 92.0135 275.152 92.04H275.06V88.55H273.97V98ZM277.072 91.8C275.743 91.8 275.041 92.87 275.041 94.45C275.041 96.06 275.761 97.17 277.072 97.17C278.439 97.17 279.141 95.97 279.141 94.45C279.141 92.96 278.457 91.8 277.072 91.8ZM284.777 98.15C286.698 98.15 287.99 96.6901 287.99 94.49C287.99 92.28 286.698 90.82 284.777 90.82C282.857 90.82 281.564 92.28 281.564 94.49C281.564 96.6901 282.857 98.15 284.777 98.15ZM282.654 94.49C282.654 95.91 283.318 97.17 284.777 97.17C286.236 97.17 286.901 95.91 286.901 94.49C286.901 93.07 286.236 91.8 284.777 91.8C283.318 91.8 282.654 93.07 282.654 94.49ZM294.122 95.1C294.122 96.43 293.107 97.0401 292.294 97.0401C291.389 97.0401 290.743 96.38 290.743 95.34V90.91H289.653V95.41C289.653 97.22 290.614 98.09 291.943 98.09C293.014 98.09 293.716 97.5201 294.048 96.8H294.122V98H295.212V90.91H294.122V95.1ZM298.777 90.91H300.291V91.83H298.777V95.97C298.777 96.89 299.238 97.04 299.718 97.04C299.932 97.04 300.071 97.0086 300.165 96.9876L300.199 96.98L300.42 97.96C300.272 98.02 300.014 98.09 299.608 98.09C298.684 98.09 297.687 97.5 297.687 96.26V91.83H296.616V90.91H297.687V89.21H298.777V90.91ZM306.676 93.73C306.676 92.5 307.465 91.8 308.541 91.8C309.565 91.8 310.184 92.44 310.184 93.57V98H311.274V93.49C311.274 91.67 310.304 90.82 308.854 90.82C307.737 90.82 307.1 91.28 306.768 92.02H306.676V88.55H305.586V98H306.676V93.73ZM319.36 94.49C319.36 96.6901 318.068 98.15 316.147 98.15C314.227 98.15 312.934 96.6901 312.934 94.49C312.934 92.28 314.227 90.82 316.147 90.82C318.068 90.82 319.36 92.28 319.36 94.49ZM316.147 97.17C314.689 97.17 314.024 95.91 314.024 94.49C314.024 93.07 314.689 91.8 316.147 91.8C317.606 91.8 318.271 93.07 318.271 94.49C318.271 95.91 317.606 97.17 316.147 97.17ZM322.593 90.91H324.107V91.83H322.593V95.97C322.593 96.89 323.055 97.04 323.535 97.04C323.749 97.04 323.89 97.0082 323.983 96.9871L324.015 96.98L324.237 97.96C324.089 98.02 323.83 98.09 323.424 98.09C322.501 98.09 321.504 97.5 321.504 96.26V91.83H320.433V90.91H321.504V89.21H322.593V90.91ZM331.009 98H332.08L333.631 92.55H333.742L335.293 98H336.364L338.525 90.91H337.38L335.847 96.32H335.773L334.277 90.91H333.114L331.6 96.34H331.526L329.993 90.91H328.848L331.009 98ZM344.157 97.04C343.935 97.5 343.289 98.17 342.052 98.17C340.704 98.17 339.633 97.37 339.633 95.99C339.633 94.3601 341.068 94.07 342.384 93.9C342.608 93.8707 342.808 93.8479 342.988 93.8275C343.846 93.73 344.212 93.6884 344.212 93.25V93.22C344.212 92.31 343.718 91.78 342.716 91.78C341.678 91.78 341.11 92.33 340.87 92.85L339.836 92.48C340.39 91.1901 341.608 90.82 342.679 90.82C343.584 90.82 345.302 91.08 345.302 93.33V98H344.212V97.04H344.157ZM342.218 97.19C341.35 97.19 340.722 96.8 340.722 96.04C340.722 95.21 341.479 94.95 342.329 94.84L342.357 94.837C342.838 94.785 344.031 94.6558 344.212 94.44V95.43C344.212 96.32 343.51 97.19 342.218 97.19ZM348.86 90.91H350.374V91.83H348.86V95.97C348.86 96.89 349.321 97.04 349.801 97.04C350.015 97.04 350.154 97.0087 350.248 96.9876L350.282 96.98L350.503 97.96C350.355 98.02 350.097 98.09 349.691 98.09C348.767 98.09 347.77 97.5 347.77 96.26V91.83H346.699V90.91H347.77V89.21H348.86V90.91ZM354.91 98.15C356.35 98.15 357.403 97.43 357.735 96.3601L356.682 96.06C356.405 96.8 355.764 97.17 354.91 97.17C353.631 97.17 352.749 96.34 352.698 94.82H357.846V94.3601C357.846 91.72 356.276 90.82 354.799 90.82C352.878 90.82 351.604 92.33 351.604 94.51C351.604 96.6901 352.86 98.15 354.91 98.15ZM354.799 91.8C353.552 91.8 352.772 92.78 352.698 93.88H356.738C356.738 92.68 355.981 91.8 354.799 91.8ZM359.503 98H360.593V93.51C360.593 92.55 361.35 91.85 362.384 91.85C362.625 91.85 362.871 91.891 362.991 91.9109L363.021 91.9158C363.032 91.9176 363.041 91.9191 363.048 91.92V90.82C362.924 90.81 362.638 90.8 362.476 90.8C361.627 90.8 360.888 91.28 360.629 91.98H360.556V90.91H359.503V98ZM369.086 100.66H367.996V90.91H369.049V92.04H369.178L369.203 92.0015L369.233 91.9533C369.484 91.5522 369.943 90.82 371.228 90.82C373.019 90.82 374.256 92.24 374.256 94.47C374.256 96.73 373.019 98.15 371.246 98.15C369.934 98.15 369.456 97.3657 369.207 96.9582L369.178 96.91H369.086V100.66ZM369.067 94.45C369.067 92.87 369.769 91.8 371.098 91.8C372.483 91.8 373.167 92.96 373.167 94.45C373.167 95.97 372.465 97.17 371.098 97.17C369.787 97.17 369.067 96.06 369.067 94.45ZM377.008 98H375.918V90.91H376.971V91.98H377.044C377.303 91.28 378.042 90.8 378.891 90.8C379.053 90.8 379.339 90.81 379.464 90.82V91.92C379.454 91.9186 379.439 91.9163 379.42 91.9132L379.405 91.9106C379.284 91.8906 379.038 91.85 378.799 91.85C377.765 91.85 377.008 92.55 377.008 93.51V98ZM383.42 98.15C385.34 98.15 386.633 96.6901 386.633 94.49C386.633 92.28 385.34 90.82 383.42 90.82C381.499 90.82 380.207 92.28 380.207 94.49C380.207 96.6901 381.499 98.15 383.42 98.15ZM381.296 94.49C381.296 95.91 381.961 97.17 383.42 97.17C384.879 97.17 385.543 95.91 385.543 94.49C385.543 93.07 384.879 91.8 383.42 91.8C381.961 91.8 381.296 93.07 381.296 94.49ZM388.444 98H389.496V96.91H389.626L389.656 96.9589C389.904 97.3666 390.382 98.15 391.694 98.15C393.466 98.15 394.704 96.73 394.704 94.47C394.704 92.24 393.466 90.82 391.675 90.82C390.39 90.82 389.932 91.5515 389.681 91.9527L389.648 92.006L389.626 92.04H389.533V88.55H388.444V98ZM391.546 91.8C390.216 91.8 389.515 92.87 389.515 94.45C389.515 96.06 390.235 97.17 391.546 97.17C392.912 97.17 393.614 95.97 393.614 94.45C393.614 92.96 392.931 91.8 391.546 91.8ZM397.46 88.55H396.37V98H397.46V88.55ZM405.253 96.3601C404.921 97.43 403.869 98.15 402.428 98.15C400.378 98.15 399.123 96.6901 399.123 94.51C399.123 92.33 400.397 90.82 402.317 90.82C403.795 90.82 405.364 91.72 405.364 94.3601V94.82H400.217C400.268 96.34 401.149 97.17 402.428 97.17C403.282 97.17 403.924 96.8 404.201 96.06L405.253 96.3601ZM400.217 93.88C400.291 92.78 401.071 91.8 402.317 91.8C403.499 91.8 404.256 92.68 404.256 93.88H400.217ZM408.111 98H407.022V90.91H408.074V92.0201H408.166C408.462 91.26 409.145 90.82 410.068 90.82C411.001 90.82 411.62 91.26 411.97 92.0201H412.044C412.409 91.28 413.152 90.82 414.168 90.82C415.433 90.82 416.328 91.59 416.328 93.25V98H415.239V93.25C415.239 92.21 414.574 91.8 413.799 91.8C412.801 91.8 412.229 92.47 412.229 93.38V98H411.121V93.14C411.121 92.34 410.544 91.8 409.718 91.8C408.868 91.8 408.111 92.53 408.111 93.57V98ZM419.742 95.34H420.85V95.2901C420.869 94.14 421.164 93.64 421.977 93.1301C422.789 92.64 423.269 91.93 423.269 90.91C423.269 89.47 422.217 88.42 420.592 88.42C419.096 88.42 417.91 89.34 417.84 90.91H419.004C419.073 89.82 419.835 89.38 420.592 89.38C421.46 89.38 422.161 89.9501 422.161 90.85C422.161 91.59 421.741 92.1101 421.201 92.4401C420.296 92.99 419.756 93.5301 419.742 95.2901V95.34ZM421.164 97.24C421.164 97.7001 420.79 98.07 420.333 98.07C419.876 98.07 419.502 97.7001 419.502 97.24C419.502 96.79 419.876 96.41 420.333 96.41C420.79 96.41 421.164 96.79 421.164 97.24Z" fill="#262B35"/>
</g>
</g>
</g>
<defs>
<filter id="filter0_d_0_826" x="23.5" y="217" width="258" height="126" filterUnits="userSpaceOnUse" color-interpolation-filters="sRGB">
<feFlood flood-opacity="0" result="BackgroundImageFix"/>
<feColorMatrix in="SourceAlpha" type="matrix" values="0 0 0 0 0 0 0 0 0 0 0 0 0 0 0 0 0 0 127 0" result="hardAlpha"/>
<feOffset dy="12"/>
<feGaussianBlur stdDeviation="12"/>
<feColorMatrix type="matrix" values="0 0 0 0 0 0 0 0 0 0 0 0 0 0 0 0 0 0 0.08 0"/>
<feBlend mode="normal" in2="BackgroundImageFix" result="effect1_dropShadow_0_826"/>
<feBlend mode="normal" in="SourceGraphic" in2="effect1_dropShadow_0_826" result="shape"/>
</filter>
<filter id="filter1_d_0_826" x="-23.5" y="100" width="248" height="123" filterUnits="userSpaceOnUse" color-interpolation-filters="sRGB">
<feFlood flood-opacity="0" result="BackgroundImageFix"/>
<feColorMatrix in="SourceAlpha" type="matrix" values="0 0 0 0 0 0 0 0 0 0 0 0 0 0 0 0 0 0 127 0" result="hardAlpha"/>
<feOffset dy="12"/>
<feGaussianBlur stdDeviation="12"/>
<feColorMatrix type="matrix" values="0 0 0 0 0 0 0 0 0 0 0 0 0 0 0 0 0 0 0.08 0"/>
<feBlend mode="normal" in2="BackgroundImageFix" result="effect1_dropShadow_0_826"/>
<feBlend mode="normal" in="SourceGraphic" in2="effect1_dropShadow_0_826" result="shape"/>
</filter>
<filter id="filter2_d_0_826" x="228.5" y="42" width="248" height="123" filterUnits="userSpaceOnUse" color-interpolation-filters="sRGB">
<feFlood flood-opacity="0" result="BackgroundImageFix"/>
<feColorMatrix in="SourceAlpha" type="matrix" values="0 0 0 0 0 0 0 0 0 0 0 0 0 0 0 0 0 0 127 0" result="hardAlpha"/>
<feOffset dy="12"/>
<feGaussianBlur stdDeviation="12"/>
<feColorMatrix type="matrix" values="0 0 0 0 0 0 0 0 0 0 0 0 0 0 0 0 0 0 0.08 0"/>
<feBlend mode="normal" in2="BackgroundImageFix" result="effect1_dropShadow_0_826"/>
<feBlend mode="normal" in="SourceGraphic" in2="effect1_dropShadow_0_826" result="shape"/>
</filter>
</defs>
</svg>
